<?xml version="1.0" encoding="utf-8"?>
<!-- Generator: Adobe Illustrator 27.5.0, SVG Export Plug-In . SVG Version: 6.00 Build 0)  -->
<svg version="1.1" xmlns="http://www.w3.org/2000/svg" xmlns:xlink="http://www.w3.org/1999/xlink" x="0px" y="0px"
	 viewBox="0 0 500 500" style="enable-background:new 0 0 500 500;" xml:space="preserve">
<g id="BACKGROUND">
	<rect style="fill:#8AC0D8;" width="500" height="500"/>
</g>
<g id="OBJECTS">
	<g>
		<g>
			<g>
				<ellipse style="fill:#330C10;" cx="274.47" cy="354.365" rx="121.434" ry="24.012"/>
			</g>
			<g>
				<path style="fill:#E3867B;" d="M285.044,336.712l5.885,3.477c56.492,6.32,76.021-20.574,85.555-53.574
					c9.534-33.001-11.618-65.8-42.351-84.309c-30.732-18.51-65.258-17.289-65.258-17.289l-16.585,6.469l7.522,2.893l-13.887,9.836
					l6.943,5.207l-11.572,9.258l13.308,13.308l-12.151,13.299L285.044,336.712z"/>
				<path style="fill:#D35F5F;" d="M273.905,211.002c-2.128,0-5.852,6.916-7.98,4.788c-0.602-0.602-6.703-6.618-15.26-14.932
					l-4.74,3.358l6.943,5.207l-10.845,8.676c7.974,7.251,13.59,12.627,13.262,13.118c-1.064,1.596-4.788,5.852-3.192,6.384
					c1.596,0.532,31.918,7.979,30.854,4.788C281.885,239.196,276.033,211.002,273.905,211.002z"/>
				<path style="fill:#D35F5F;" d="M275.093,296.465l12.597-23.595l-20.29-2.534l-2.394-22.871l-18.936-3.274l0.019-2.882
					l-3.635,3.978l39.912,85.676c8.446-5.628,13.995-10.077,13.995-10.077l-8.434,0.655l9.758-30.395L275.093,296.465z"/>
				<path style="fill:#5B2325;" d="M285.442,334.577l5.766,3.406c55.346,6.192,74.479-20.156,83.82-52.488
					c9.341-32.331-11.383-64.466-41.492-82.6c-30.109-18.134-63.934-16.938-63.934-16.938l-16.249,6.338l7.369,2.834l-13.605,9.637
					l6.803,5.102l-11.337,9.07l13.038,13.038l-11.904,13.029L285.442,334.577z"/>
				<path style="fill:#330C10;" d="M323.969,213.624c-19.087-8.771-38.899-14.067-51.224-17.29
					c-3.789,0.236-7.592,0.409-11.41,0.517c1.165,0.373,2.332,0.741,3.503,1.102c-1.188,0.67-2.382,1.333-3.584,1.991
					c0.353,0.188,0.707,0.375,1.061,0.562c-1.072,0.208-2.148,0.412-3.225,0.611c-1.839,0.988-3.695,1.961-5.566,2.919
					c9.727,3.581,19.684,6.753,29.843,9.492c-3.01,4.863-6.133,9.689-9.367,14.473c6.284,4.854,12.809,9.55,19.569,14.068
					c-4.27,2.053-8.609,4.036-13.015,5.945c3.419,5.14,6.98,10.237,10.682,15.283c-8.616,5.086-17.559,9.898-26.815,14.407
					c4.449,6.966,9.138,13.864,14.066,20.679c-15.257,1.334-30.709,1.88-46.294,1.601c8.942,6.69,18.26,13.111,27.94,19.229
					c-12.005,2.001-24.215,3.535-36.603,4.576c0.242,2.781,0.496,5.563,0.762,8.345c2.886,2.24,5.81,4.453,8.772,6.64
					c5.567,1.632,11.038,3.007,16.41,4.159c39.702,5.208,68.762-2.244,88.492-13.924c19.882-11.855,30.433-27.937,36.624-44.017
					C386.297,251.769,355.378,228.659,323.969,213.624z"/>
				<path style="fill:#E3867B;" d="M304.549,330.698c0,0-4.292,15.266-3.683,24.921c0.609,9.655,5.773,3.319,5.773,3.319
					s1.96,9.323,6.799,6.152c4.839-3.172,20.161-25.113,21.041-30.947C335.359,328.307,304.549,330.698,304.549,330.698z"/>
				<path style="opacity:0.5;fill:#D35F5F;" d="M304.549,330.698c0,0-4.292,15.266-3.683,24.921
					c0.609,9.655,5.773,3.319,5.773,3.319s1.96,9.323,6.799,6.152c4.839-3.172,20.161-25.113,21.041-30.947
					C335.359,328.307,304.549,330.698,304.549,330.698z"/>
				<path style="fill:#F59B87;" d="M291.593,340.047l-5.887-3.467l27.8-15.539l-20.186-11.436l25.265-8.658l-13.911-17.372
					l13.774-18.292l-11.67-15.222l8.149-8.629l-19.622-13.669l2.741-20.289l-29.735-5.14l6.938-11.707l-6.92-0.957
					c0,0,0,0,1.035-4.093c0,0,34.514-1.174,65.259,17.285c30.745,18.459,51.93,51.13,42.438,83.964S348.075,346.404,291.593,340.047
					z"/>
				<path style="opacity:0.5;fill:#D35F5F;" d="M377.947,286.201c-0.446-0.464-0.892-0.925-1.34-1.396
					c-0.475-0.498-0.951-0.999-1.427-1.502c-3.09-3.264-6.15-6.571-8.775-9.416c-0.808-0.875-1.575-1.707-2.288-2.481
					c-0.45-0.487-0.875-0.948-1.28-1.385c-0.226-0.244-0.447-0.482-0.657-0.709c-1.657-1.785-2.82-3.013-3.238-3.371
					c-0.074-0.063-0.17-0.115-0.281-0.16c-2.032-0.812-10.054,1.559-17.212,4.452c-0.444,0.18-0.885,0.361-1.32,0.544
					c-0.436,0.183-0.866,0.367-1.291,0.552c-0.521,0.227-1.031,0.456-1.529,0.684c-0.313,0.143-0.621,0.286-0.923,0.429
					c-0.196,0.093-0.389,0.185-0.579,0.277c-0.286,0.139-0.564,0.277-0.838,0.414c-0.179,0.09-0.354,0.179-0.527,0.268
					c-3.257,1.68-5.425,3.219-5.202,4.112c0.047,0.188,0.161,0.449,0.332,0.77c0.004,0.007,0.005,0.012,0.009,0.019
					c0.087,0.163,0.19,0.342,0.306,0.534c0.002,0.003,0.003,0.005,0.005,0.008c0.109,0.18,0.233,0.376,0.366,0.581
					c0.012,0.019,0.021,0.034,0.034,0.053c0.142,0.218,0.299,0.45,0.467,0.693c0.006,0.008,0.01,0.015,0.016,0.023
					c4.71,6.809,19.064,22.991,28.832,26.973c0.002,0.001,0.004,0.002,0.006,0.003c0,0,0,0,0,0c0.034,0.014,0.068,0.031,0.102,0.044
					c2.791,1.116,5.81,1.754,8.991,2.019c3.894-6.918,6.81-14.586,9.131-22.619C377.874,286.477,377.908,286.339,377.947,286.201z"
					/>
				<path style="fill:#330C10;" d="M274.098,211.195c-2.128,0-5.852,6.916-7.98,4.788c-0.593-0.593-6.527-6.444-14.887-14.57
					l-3.956,2.802l6.943,5.207l-11.572,9.258l0.027,0.027c7.731,7.04,13.127,12.221,12.806,12.703
					c-0.012,0.018-0.029,0.042-0.042,0.061l0.518,0.518l-3.65,3.995c-0.467,0.899-0.61,1.612-0.017,1.81
					c1.596,0.532,31.918,7.98,30.854,4.788C282.077,239.389,276.226,211.195,274.098,211.195z"/>
				<path style="fill:#330C10;" d="M275.171,297.623l12.741-23.517l-20.274-2.658l-2.255-22.885l-18.916-3.39l0.036-2.84l-2.7,2.955
					l39.99,85.844c7.599-5.079,12.495-8.957,12.495-8.957l-8.438,0.604l9.943-30.335L275.171,297.623z"/>
				<g>
					<g>
						<polygon style="fill:#E3867B;" points="299.195,220.327 297.438,217.69 296.935,221.399 						"/>
						<path style="fill:#E3867B;" d="M270.225,185.017c-1.04,4.114-1.04,4.114-1.04,4.114l6.921,0.953l-6.954,11.77l20.037,3.456
							l-5.897-8.851l5.624-10.105C277.758,184.751,270.225,185.017,270.225,185.017z"/>
						<path style="opacity:0.5;fill:#D35F5F;" d="M377.059,286.825c6.855-23.711-2.293-47.334-19.481-65.584
							c9.227,26.546,8.065,54.832-8.962,77.034c-15.629,20.378-34.562,36.403-61.228,37.878l-0.994,0.559l5.731,3.386
							C348.19,346.224,367.597,319.555,377.059,286.825z"/>
					</g>
					<g>
						<polygon style="fill:#E3867B;" points="275.78,198.878 270.724,199.195 269.153,201.854 274.43,202.764 						"/>
						<path style="fill:#F59B87;" d="M273.684,194.185c8.23-1.348,26.375-3.355,46.627,0.551
							c-25.903-10.571-50.085-9.719-50.085-9.719c-1.04,4.114-1.04,4.114-1.04,4.114l6.921,0.953L273.684,194.185z"/>
					</g>
					<path style="fill:#D35F5F;" d="M296.311,194.793c8.876,0.514,20.942,3.971,22.234,5.264c1.345,0.962,1.732,2.203-0.527,1.506
						c-2.505-1.111-15.746-2.885-23.043-2.842C286.918,198.695,279.74,194.361,296.311,194.793z"/>
				</g>
				<g>
					<path style="fill:#E3867B;" d="M281.841,324.9c0,0,8.944,13.095,11.451,22.438c2.507,9.344-4.41,4.989-4.41,4.989
						s1.121,9.461-4.478,8.001c-5.599-1.46-27.127-17.356-29.825-22.604C251.882,332.478,281.841,324.9,281.841,324.9z"/>
					<path style="opacity:0.5;fill:#D35F5F;" d="M281.841,324.9c0,0,8.944,13.095,11.451,22.438c2.507,9.344-4.41,4.989-4.41,4.989
						s1.121,9.461-4.478,8.001c-5.599-1.46-27.127-17.356-29.825-22.604C251.882,332.478,281.841,324.9,281.841,324.9z"/>
					<path style="fill:#E3867B;" d="M234.978,338.211c0,0,12.335,10.389,16.744,18.214c4.41,7.826-4.161,4.791-4.161,4.791
						s2.858,8.075-3.733,7.407c-6.591-0.668-33.659-12.142-37.598-16.4C202.292,347.966,234.978,338.211,234.978,338.211z"/>
					<path style="opacity:0.5;fill:#D35F5F;" d="M234.978,338.211c0,0,12.335,10.389,16.744,18.214
						c4.41,7.826-4.161,4.791-4.161,4.791s2.858,8.075-3.733,7.407c-6.591-0.668-33.659-12.142-37.598-16.4
						C202.292,347.966,234.978,338.211,234.978,338.211z"/>
					<path style="fill:#F59B87;" d="M160.307,239.779c0,0,4.707-6.441,7.416-8.647c2.299,3.566,2.299,3.566,2.299,3.566l5.417-4.411
						l3.865,13.113l24.033-18.25l1.233,3.336c0,0,9.235-9.168,16.512-9.27c7.277-0.103,14.564,6.215,11.476,19.221
						c7.205-2.351,7.205-2.351,7.205-2.351l0.781,11.889l19.124,1.898l4.041,22.638l20.42,1.061l-10.86,24.443l22.148-6.937
						l-7.536,31.021l8.365-1.263c0,0-35.601,33.053-63.917,37.541c-28.316,4.489-73.113-1.279-84.676-49.818
						c-4.949-26.183-2.234-32.294-2.234-32.294S115.673,268.293,160.307,239.779z"/>
					<path style="fill:#D35F5F;" d="M153.423,257.586c0,0-10.88,1.465-13.502,5.757c-2.622,4.292,5.268,9.876,9.751,10.257
						C154.153,273.981,155.657,258.639,153.423,257.586z"/>
					<path style="fill:#E3867B;" d="M160.307,239.779c0,0,4.707-6.441,7.416-8.647c2.299,3.566,2.299,3.566,2.299,3.566l5.417-4.411
						l3.865,13.113l24.033-18.25l1.233,3.336c0,0,9.235-9.168,16.512-9.27c7.277-0.103,14.564,6.215,11.476,19.221
						c7.205-2.351,7.205-2.351,7.205-2.351l0.781,11.889l19.124,1.898l4.041,22.638l20.42,1.061l-10.86,24.443l22.148-6.937
						l-7.536,31.021l8.365-1.263c0,0-35.601,33.053-63.917,37.541c-28.316,4.489-73.113-1.279-84.676-49.818
						c-4.949-26.183-2.234-32.294-2.234-32.294S149.643,254.421,160.307,239.779z"/>
					<path style="fill:#F59B87;" d="M173.713,294.097c-2.65-33.921,1.382-41.019,1.382-41.019s1.314-4.453,3.873-10.819
						l-3.529-11.971l-5.417,4.411c0,0,0,0-2.299-3.566c-2.709,2.206-7.416,8.647-7.416,8.647
						c-10.664,14.642-14.888,36.486-14.888,36.486s-2.715,6.111,2.234,32.294c9.276,38.943,39.943,50.352,66.33,51.024
						C194.252,347.628,177.783,327.248,173.713,294.097z"/>
					<path style="fill:#E3867B;" d="M294.466,321.105l-0.412,1.696c1.412-1.241,2.192-1.964,2.192-1.964L294.466,321.105z"/>
					<g style="opacity:0.5;">
						<path style="fill:#D35F5F;" d="M290.389,311.775c-12.914,13.908-32.189,31.845-50.591,38.182
							c-14.431,4.969-33.234,8.178-51.614,5.134c15.009,5.247,31.279,5.326,44.146,3.287c28.316-4.489,63.917-37.542,63.917-37.542
							l-8.365,1.263L290.389,311.775z"/>
					</g>
					<path style="opacity:0.5;fill:#D35F5F;" d="M187.807,293.663c1.357-0.625,2.764-1.14,4.214-1.512
						c10.217-2.619,20.676-2.425,25.573,0.218c11.408,6.157,17.296,16.638,4.322,35.258c-2.433,3.491-5.289,6.248-8.378,8.379
						l-3.177,1.946c-13.517,10.411-32.287,7.918-39.084,2.367c-8.084-6.602-15.249-22.907-3.523-34.863
						c0.186-0.19,0.373-0.382,0.561-0.575c2.618-2.696,5.709-4.874,9.114-6.441L187.807,293.663z"/>
					<path style="fill:#D35F5F;" d="M179.926,295.165c1.445-0.669,2.942-1.225,4.482-1.632c10.853-2.867,21.923-2.807,27.072-0.121
						c11.995,6.257,18.086,17.092,4.096,36.66c-2.623,3.669-5.685,6.579-8.984,8.84l-3.39,2.07
						c-14.453,11.026-34.292,8.685-41.412,2.997c-8.469-6.766-15.833-23.649-3.256-36.259c0.2-0.2,0.4-0.403,0.602-0.607
						c2.809-2.843,6.111-5.153,9.737-6.832L179.926,295.165z"/>
					<path style="fill:#BF4B4B;" d="M205.386,293.188c12.684,6.617,20.045,17.36,11.205,35.417
						c12.652-18.643,6.579-29.095-5.112-35.193c-2.625-1.369-6.79-2.054-11.679-2.019
						C201.997,291.812,203.894,292.41,205.386,293.188z"/>
					<path style="fill:#D35F5F;" d="M207.454,235.806c0,0,6.872-8.562,11.901-8.592c5.029-0.03,5.738,9.611,3.75,13.646
						C221.118,244.896,207.203,238.263,207.454,235.806z"/>
					<g>
						<path style="fill:none;stroke:#5B2325;stroke-width:2.893;stroke-linecap:round;stroke-miterlimit:10;" d="M184.63,273.013
							c0,0,11.343,6.914,15.169,8.578"/>
						<path style="fill:none;stroke:#5B2325;stroke-width:2.893;stroke-linecap:round;stroke-miterlimit:10;" d="M197,268.708
							c0,0-3.882,8.928-6.957,14.124"/>
					</g>
					<g>
						<path style="fill:none;stroke:#5B2325;stroke-width:2.893;stroke-linecap:round;stroke-miterlimit:10;" d="M160.14,279.165
							c0,0,11.343,6.914,15.169,8.578"/>
						<path style="fill:none;stroke:#5B2325;stroke-width:2.893;stroke-linecap:round;stroke-miterlimit:10;" d="M172.511,274.861
							c0,0-3.881,8.928-6.957,14.124"/>
					</g>
					<path style="fill:#E3867B;" d="M205.548,297.838c-7.335-3.826-26.983-2.192-40.313,5.815c-2.46,1.478-4.705,3.172-6.617,5.09
						c-12.276,12.308-5.088,28.786,3.178,35.389c6.949,5.551,26.313,7.837,40.418-2.925c2.673-2.039,5.156-4.546,7.331-7.588
						C223.2,314.52,217.255,303.945,205.548,297.838z"/>
					<path style="fill:#F59B87;" d="M166.858,344.947c-9.325-7.449-17.434-26.039-3.585-39.924c0.119-0.119,0.243-0.235,0.364-0.352
						c-1.836,1.225-3.53,2.578-5.018,4.071c-12.276,12.308-5.088,28.786,3.178,35.389c2.638,2.108,7.067,3.742,12.316,4.372
						C171.132,347.592,168.633,346.366,166.858,344.947z"/>
					<path style="fill:#5B2325;" d="M188.412,313.271c1.627,0.346,5.597,3.516,8.066,6.968c0.455,0.637,0.86,1.284,1.189,1.924
						c2.112,4.11,0.102,6.173-1.806,6.215c-1.604,0.036-5.645-2.353-8.182-6.438c-0.481-0.774-0.908-1.609-1.254-2.5
						C184.252,313.849,185.815,312.719,188.412,313.271z"/>
					<path style="fill:#5B2325;" d="M169.619,321.982c1.521,0.323,5.231,3.286,7.538,6.512c0.426,0.595,0.804,1.2,1.111,1.798
						c1.974,3.841,0.096,5.769-1.688,5.809c-1.499,0.033-5.275-2.199-7.646-6.016c-0.449-0.723-0.848-1.504-1.172-2.336
						C165.732,322.521,167.192,321.465,169.619,321.982z"/>
					<path style="fill:none;stroke:#5B2325;stroke-width:2.893;stroke-linecap:round;stroke-miterlimit:10;" d="M212.195,349.329
						c0,0-0.103-10.626,10.05-6.48"/>
					<path style="fill:#FAD4BD;" d="M210.422,290.347c-3.402,2.194-5.247-6.714-5.644-8.753
						C204.381,279.555,213.824,288.153,210.422,290.347z"/>
					<path style="fill:#FAD4BD;" d="M160.164,299.272c-3.017-0.556,0.592-6.431,1.432-7.763
						C162.436,290.178,163.181,299.828,160.164,299.272z"/>
				</g>
			</g>
		</g>
		<path style="fill:#BA2727;" d="M101.829,116.232c4.256,5.852,41.29,48.381,45.014,51.573c3.724,3.192,44.153-15.427,49.473-15.427
			s57.646,54.148,59.774,56.276c2.128,2.128,5.852-4.788,7.979-4.788s7.979,28.194,9.044,31.386
			c1.064,3.192-29.258-4.256-30.854-4.788c-1.596-0.532,2.128-4.788,3.192-6.384c1.064-1.596-42.219-39.253-43.814-40.849
			s-46.281,19.151-49.473,21.279c-3.192,2.128-103.53-87.747-105.126-89.874C45.44,112.508,97.573,110.381,101.829,116.232z"/>
		<g>
			<g>
				<path style="fill:#ABD6A7;" d="M346.212,231.995c2.415,2.07,29.702,33.174,33.559,33.174c3.857,0,8.101-7.715,7.715-9.258
					c-0.386-1.543,10.415-3.857,15.044-4.629c4.629-0.771,13.501-2.7,11.958,1.157s-10.415,11.958-25.459,16.973
					c-15.044,5.015-30.474,8.486-42.046,3.857c-11.572-4.629-29.702-26.616-30.473-29.702
					C315.738,240.482,343.512,229.681,346.212,231.995z"/>
				<path style="fill:#5E9659;" d="M402.53,251.282c-4.629,0.771-15.429,3.086-15.044,4.629c0.386,1.543-3.857,9.258-7.715,9.258
					c-3.857,0-31.144-31.104-33.559-33.174c-2.7-2.314-30.473,8.486-29.702,11.572c0.769,3.077,18.796,24.943,30.372,29.658
					c-11.342-8.129-23.842-23.954-24.007-25.607c0.964-1.35-0.193-4.822-0.193-4.822s9.643-4.05,13.501-4.629
					c0.771,1.929,7.136,2.314,9.836,2.122c1.35,2.314,4.822,8.293,9.836,13.308c5.015,5.015,15.044,14.658,23.144,14.851
					c8.101,0.193,12.151-2.7,12.151-2.7s-2.314,0.193-5.786,0.771c1.157-0.193,3.664-2.7,5.786-4.243
					c2.7-0.386,5.207-4.629,5.786-4.822c0.579-0.193,7.715,0,8.679,0.193c-0.228,0.228,0.29,1.37,1.237,2.822
					c4.272-3.126,6.866-6.105,7.635-8.029C416.031,248.582,407.159,250.511,402.53,251.282z"/>
				<path style="fill:#5E9659;" d="M333.246,250.031c0.581-1.012,2.865-2.011,4.837-1.696c0.364,0.058,0.717,0.161,1.047,0.317
					c2.118,1,2.328,3.823,1.813,5.293c-0.433,1.236-2.445,2.781-4.672,2.119c-0.422-0.126-0.851-0.33-1.279-0.631
					C332.304,253.541,332.318,251.646,333.246,250.031z"/>
				<path style="fill:#5E9659;" d="M376.643,273.055c-0.413-1.44-1.233-2.849-2.61-4.07c-0.703-0.623-1.5-1.159-2.354-1.612
					c-4.628-2.456-10.933-2.49-13.063-0.939c-2.657,1.936-4.06,4.738-2.017,8.906C362.82,275.762,369.645,274.776,376.643,273.055z"
					/>
			</g>
			<g>
				<path style="fill:#5E9659;" d="M342.736,141.64c-1.064-2.231-1.324-3.626,2.804-5.595c4.128-1.97,21.435-9.942,28.957-19.007
					c11.811-14.234,28.714-26.046,37.69-31.241c8.976-5.195,14.072-6.41,15.831-6.337c1.758,0.073,27.18,21.699,28.326,23.889
					c1.146,2.19-6.065,0.461-13.999,4.652c-7.934,4.191-39.797,41.086-55.056,49.684c-15.259,8.598-19.745,10.029-21.323,9.059
					C364.387,165.774,345.887,148.246,342.736,141.64z"/>
				<path style="fill:#ABD6A7;" d="M367.605,162.882c-3.787-3.237-18.412-17.562-21.11-22.777c0.208-0.116,0.467-0.251,0.789-0.405
					l0.581-0.276c5.434-2.579,21.971-10.427,29.748-19.8c10.768-12.976,26.447-24.444,36.602-30.322
					c7.478-4.328,11.498-5.427,12.977-5.703c3.452,2.315,15.107,12.062,21.563,17.891c-2.431,0.507-5.322,1.354-8.303,2.929
					c-3.758,1.984-10.163,8.31-21.162,19.318c-11.474,11.485-25.754,25.778-33.991,30.419
					C373.522,160.794,369.192,162.531,367.605,162.882z"/>
				<path style="fill:#5E9659;" d="M369.511,139.589c0.452-1.075,2.596-2.348,4.592-2.279c0.368,0.013,0.732,0.071,1.078,0.185
					c2.225,0.731,2.781,3.507,2.451,5.029c-0.277,1.279-2.084,3.061-4.376,2.678c-0.434-0.073-0.886-0.223-1.348-0.469
					C369.009,143.188,368.789,141.305,369.511,139.589z"/>
				<path style="fill:#5E9659;" d="M345.016,139.589c0.452-1.075,2.596-2.348,4.592-2.279c0.368,0.013,0.732,0.071,1.078,0.185
					c2.225,0.731,2.781,3.507,2.451,5.029c-0.277,1.279-2.084,3.061-4.376,2.678c-0.434-0.073-0.886-0.223-1.347-0.469
					C344.514,143.188,344.294,141.305,345.016,139.589z"/>
				<path style="fill:#5E9659;" d="M364.303,159.454c0.452-1.076,2.596-2.348,4.592-2.279c0.368,0.013,0.732,0.071,1.078,0.185
					c2.225,0.732,2.781,3.507,2.451,5.029c-0.277,1.279-2.084,3.061-4.376,2.678c-0.434-0.073-0.886-0.223-1.348-0.469
					C363.801,163.053,363.581,161.171,364.303,159.454z"/>
				<path style="fill:#5E9659;" d="M422.743,83.463c0.452-1.075,2.596-2.349,4.592-2.279c0.368,0.013,0.732,0.071,1.078,0.185
					c2.225,0.732,2.781,3.507,2.451,5.029c-0.277,1.279-2.084,3.061-4.376,2.678c-0.434-0.073-0.886-0.223-1.348-0.469
					C422.241,87.063,422.021,85.18,422.743,83.463z"/>
				<path style="fill:#5E9659;" d="M443.158,98.908c0.452-1.075,2.596-2.348,4.592-2.279c0.368,0.013,0.732,0.071,1.078,0.185
					c2.225,0.731,2.781,3.507,2.451,5.029c-0.277,1.279-2.084,3.061-4.376,2.678c-0.434-0.073-0.886-0.223-1.348-0.469
					C442.656,102.507,442.436,100.625,443.158,98.908z"/>
				<path style="fill:#5E9659;" d="M419.062,99.601c0.452-1.075,2.596-2.348,4.592-2.279c0.368,0.013,0.732,0.071,1.078,0.185
					c2.225,0.731,2.781,3.507,2.451,5.029c-0.277,1.28-2.084,3.061-4.376,2.678c-0.434-0.073-0.886-0.223-1.347-0.469
					C418.56,103.2,418.34,101.317,419.062,99.601z"/>
				<path style="fill:#5E9659;" d="M386.34,114.697c1.379-3.28,7.917-7.162,14.004-6.95c1.123,0.039,2.231,0.218,3.288,0.565
					c6.786,2.231,8.48,10.696,7.474,15.338c-0.846,3.902-6.357,9.336-13.345,8.167c-1.324-0.221-2.701-0.68-4.109-1.43
					C384.809,125.674,384.138,119.932,386.34,114.697z"/>
				<g>
					<path style="fill:#ABD6A7;" d="M402.622,114.981c0.121,0.196,0.069,0.454-0.112,0.596c-0.349,0.274-0.739,0.583-1.169,0.927
						l-1.202,0.943c-0.166,0.13-0.392,0.119-0.565-0.002c-0.255-0.177-0.535-0.196-0.84-0.056c-0.586,0.268-1.029,0.71-1.329,1.325
						c-0.201,0.445-0.163,0.769,0.113,0.972c0.177,0.135,0.534,0.08,1.073-0.167c0.317-0.145,0.768-0.391,1.354-0.739
						c0.585-0.347,1.037-0.594,1.354-0.739c1.568-0.717,2.696-0.789,3.385-0.217c0.792,0.661,0.841,1.775,0.147,3.341
						c-0.071,0.161-0.051,0.353,0.062,0.488c0.279,0.335,0.559,0.662,0.839,0.981l0.712,0.762c0.213,0.228,0.205,0.583-0.017,0.802
						l-0.743,0.732c-0.395,0.389-1.04,0.355-1.392-0.073l-0.712-0.864c-0.17-0.206-0.485-0.23-0.672-0.039
						c-0.103,0.105-0.207,0.205-0.313,0.299c-0.185,0.165-0.195,0.452-0.038,0.643l0.362,0.439c0.008,0.009,0.015,0.018,0.023,0.027
						c0.137,0.147,0.277,0.292,0.421,0.435c0.182,0.182,0.185,0.475,0.002,0.655l-0.678,0.667c-0.466,0.459-1.225,0.419-1.641-0.086
						l-0.733-0.89c-0.129-0.157-0.344-0.205-0.532-0.128c-0.557,0.23-1.135,0.406-1.733,0.526c-0.28,0.056-0.54-0.165-0.537-0.451
						c0.006-0.558,0.031-1.268,0.075-2.129c0.012-0.223,0.185-0.401,0.406-0.433c0.512-0.074,0.997-0.215,1.454-0.424
						c0.269-0.123,0.521-0.267,0.757-0.432c0.436-0.29,0.817-0.596,1.143-0.915c0.484-0.471,0.647-0.802,0.491-0.992
						c-0.17-0.206-0.58-0.161-1.229,0.136c-0.428,0.196-1.026,0.535-1.795,1.017c-0.769,0.482-1.375,0.825-1.819,1.028
						c-1.41,0.645-2.38,0.657-2.913,0.036c-0.622-0.704-0.609-1.942,0.039-3.715c0.057-0.155,0.03-0.331-0.077-0.457l-1.761-2.084
						c-0.151-0.179-0.143-0.444,0.018-0.613l1.316-1.379c0.197-0.207,0.53-0.188,0.699,0.043c0.275,0.376,0.565,0.764,0.868,1.165
						c0.183,0.243,0.548,0.246,0.732,0.004c0.053-0.07,0.107-0.14,0.163-0.211c0.134-0.171,0.135-0.411-0.003-0.579l-0.912-1.108
						c-0.152-0.185-0.137-0.456,0.036-0.623l1.099-1.056c0.409-0.393,1.073-0.323,1.392,0.146l0.522,0.769
						c0.12,0.178,0.351,0.26,0.548,0.175c0.646-0.279,1.302-0.336,1.968-0.173c0.49,0.129,0.956,0.461,1.398,0.999
						C402.296,114.487,402.46,114.719,402.622,114.981z"/>
				</g>
			</g>
		</g>
		<g>
			<g>
				<path style="fill:#330C10;" d="M298.522,424.787c-0.584,5.283,9.044,10.684,21.506,12.062
					c12.462,1.378,23.038-1.787,23.623-7.071c0.584-5.284-9.044-10.684-21.506-12.062S299.106,419.503,298.522,424.787z"/>
				<g>
					<g>
						<path style="fill:#DA8A2F;" d="M302.919,416.544c2.131-1.891,11.016-3.466,18.887-2.51c1.453,0.177,2.871,0.44,4.206,0.803
							c8.568,2.329,9.882,7.92,8.093,10.723c-0.216,0.338-1.949,4.223-2.286,4.751c-1.504,2.357-9.219,5.053-18.16,3.369
							c-1.694-0.319-3.432-0.796-5.18-1.461c-8.043-3.063-10.332-5.882-9.642-8.357
							C299.066,423.037,301.842,417.499,302.919,416.544z"/>
						<path style="fill:#FFDEAD;" d="M302.919,416.544c2.131-1.891,11.016-3.466,18.887-2.51c1.453,0.177,2.871,0.439,4.206,0.802
							c8.568,2.33,9.882,7.92,8.093,10.724c-1.504,2.357-9.219,5.054-18.16,3.369c-1.694-0.319-3.432-0.796-5.18-1.461
							C299.788,423.289,299.518,419.562,302.919,416.544z"/>
						<path style="fill:#DA8A2F;" d="M331.103,423.783c-0.34-0.967-1.69-3.37-6.87-4.78c-1.191-0.323-2.508-0.573-3.913-0.744
							c-2.976-0.362-6.397-0.363-9.636-0.003c-4.116,0.457-6.606,1.326-7.435,1.859c-0.013-0.038-0.021-0.066-0.022-0.074
							c-0.031-0.177,0.162-0.734,1.109-1.576c0.573-0.508,3.154-1.5,7.639-1.998c3.238-0.36,6.66-0.359,9.636,0.004
							c1.405,0.171,2.721,0.421,3.913,0.744c5.18,1.409,6.53,3.812,6.87,4.78c0.279,0.797,0.237,1.573-0.117,2.128
							c-0.129,0.197-0.482,0.47-0.998,0.767C331.292,424.539,331.236,424.165,331.103,423.783z"/>
						<g>
							<path style="fill:#FFFFFF;" d="M305.391,422.227c1.908,0.977,3.908,1.679,5.906,2.381c1.991,0.685,4.022,1.202,6.092,1.503
								c2.066,0.318,4.165,0.425,6.261,0.353c2.095-0.093,4.197-0.344,6.265-0.916c-1.905,0.999-4.039,1.576-6.193,1.824
								c-2.158,0.263-4.351,0.204-6.506-0.107c-2.151-0.335-4.267-0.93-6.247-1.81C308.999,424.6,307.059,423.589,305.391,422.227z"
								/>
						</g>
					</g>
					<g>
						<path style="fill:#BC6917;" d="M331.698,428.003c-0.013,0.581-0.193,1.08-0.414,1.56c-0.238,0.472-0.517,0.923-0.966,1.293
							c0.012-0.581,0.192-1.081,0.414-1.56C330.971,428.824,331.25,428.373,331.698,428.003z"/>
					</g>
					<g>
						<path style="fill:#BC6917;" d="M329.556,428.858c-0.013,0.581-0.193,1.08-0.414,1.56c-0.238,0.472-0.518,0.923-0.966,1.293
							c0.012-0.581,0.192-1.081,0.414-1.56C328.829,429.679,329.108,429.228,329.556,428.858z"/>
					</g>
					<g>
						<path style="fill:#BC6917;" d="M326.948,429.687c-0.016,0.677-0.205,1.284-0.435,1.874c-0.247,0.583-0.538,1.148-1.002,1.642
							c0.015-0.678,0.203-1.285,0.435-1.874C326.194,430.747,326.485,430.182,326.948,429.687z"/>
					</g>
					<g>
						<path style="fill:#BC6917;" d="M323.765,430.195c-0.013,0.581-0.193,1.08-0.414,1.56c-0.238,0.472-0.517,0.923-0.966,1.293
							c0.012-0.581,0.192-1.081,0.414-1.56C323.038,431.017,323.318,430.565,323.765,430.195z"/>
					</g>
					<g>
						<path style="fill:#BC6917;" d="M320.997,430.271c-0.022,0.674-0.215,1.275-0.45,1.859c-0.252,0.577-0.547,1.135-1.015,1.621
							c0.021-0.674,0.214-1.275,0.45-1.859C320.235,431.316,320.53,430.758,320.997,430.271z"/>
					</g>
					<g>
						<path style="fill:#BC6917;" d="M318.118,430.051c-0.013,0.581-0.193,1.08-0.414,1.56c-0.238,0.472-0.518,0.923-0.966,1.293
							c0.012-0.581,0.192-1.081,0.414-1.56C317.391,430.873,317.671,430.421,318.118,430.051z"/>
					</g>
					<g>
						<path style="fill:#BC6917;" d="M315.68,429.628c-0.013,0.581-0.193,1.08-0.414,1.56c-0.238,0.472-0.518,0.923-0.966,1.293
							c0.012-0.581,0.192-1.081,0.414-1.56C314.953,430.449,315.233,429.998,315.68,429.628z"/>
					</g>
					<g>
						<path style="fill:#BC6917;" d="M313.073,429.069c0.047,0.699-0.144,1.287-0.39,1.849c-0.271,0.551-0.6,1.074-1.168,1.486
							c-0.049-0.7,0.142-1.288,0.39-1.849C312.178,430.005,312.506,429.481,313.073,429.069z"/>
					</g>
					<g>
						<path style="fill:#BC6917;" d="M310.38,428.442c0.047,0.699-0.144,1.287-0.39,1.849c-0.271,0.551-0.6,1.074-1.168,1.486
							c-0.049-0.7,0.142-1.288,0.39-1.849C309.486,429.379,309.814,428.855,310.38,428.442z"/>
					</g>
					<g>
						<path style="fill:#BC6917;" d="M307.282,426.935c-0.013,0.581-0.193,1.08-0.414,1.56c-0.238,0.472-0.518,0.923-0.966,1.293
							c0.012-0.581,0.192-1.081,0.414-1.56C306.555,427.757,306.835,427.306,307.282,426.935z"/>
					</g>
					<g>
						<path style="fill:#BC6917;" d="M305.149,425.784c-0.013,0.581-0.193,1.08-0.414,1.56c-0.238,0.472-0.518,0.923-0.966,1.293
							c0.012-0.581,0.192-1.081,0.414-1.56C304.422,426.605,304.701,426.154,305.149,425.784z"/>
					</g>
					<g>
						<path style="fill:#BC6917;" d="M302.931,424.565c-0.013,0.58-0.193,1.08-0.414,1.56c-0.238,0.472-0.517,0.923-0.966,1.293
							c0.012-0.581,0.192-1.081,0.414-1.56C302.203,425.386,302.483,424.935,302.931,424.565z"/>
					</g>
					<g>
						<path style="fill:#BC6917;" d="M301.652,423.472c-0.013,0.58-0.193,1.08-0.414,1.56c-0.238,0.472-0.517,0.923-0.966,1.293
							c0.012-0.581,0.192-1.081,0.414-1.56C300.925,424.294,301.205,423.843,301.652,423.472z"/>
					</g>
					<g>
						<path style="fill:#BC6917;" d="M300.797,422.025c-0.013,0.581-0.193,1.08-0.414,1.56c-0.238,0.472-0.518,0.923-0.966,1.293
							c0.012-0.581,0.192-1.081,0.414-1.56C300.07,422.846,300.35,422.395,300.797,422.025z"/>
					</g>
				</g>
			</g>
			<g>
				<path style="fill:#330C10;" d="M259.321,380.957c-0.487,4.402,6.572,8.794,15.767,9.811c9.195,1.017,17.043-1.727,17.53-6.129
					c0.487-4.402-6.572-8.795-15.767-9.811C267.656,373.811,259.808,376.555,259.321,380.957z"/>
				<g>
					<g>
						<path style="fill:#DA8A2F;" d="M262.312,374.379c1.684-1.493,8.702-2.738,14.921-1.983c1.148,0.14,2.268,0.347,3.322,0.634
							c6.768,1.84,7.807,6.257,6.393,8.471c-0.17,0.267-1.539,3.336-1.806,3.753c-1.188,1.862-7.283,3.992-14.346,2.662
							c-1.338-0.252-2.711-0.629-4.092-1.155c-6.354-2.419-8.162-4.646-7.617-6.602
							C259.269,379.508,261.462,375.133,262.312,374.379z"/>
						<path style="fill:#FFDEAD;" d="M262.312,374.379c1.683-1.494,8.702-2.738,14.921-1.983c1.147,0.14,2.268,0.347,3.322,0.634
							c6.768,1.84,7.807,6.257,6.393,8.471c-1.188,1.862-7.283,3.992-14.346,2.662c-1.338-0.252-2.711-0.628-4.092-1.154
							C259.839,379.707,259.625,376.763,262.312,374.379z"/>
						<path style="fill:#DA8A2F;" d="M284.577,380.098c-0.268-0.764-1.335-2.662-5.427-3.776c-0.941-0.255-1.981-0.453-3.091-0.588
							c-2.351-0.286-5.054-0.287-7.612-0.003c-3.251,0.361-5.219,1.047-5.874,1.469c-0.01-0.03-0.016-0.052-0.017-0.058
							c-0.024-0.14,0.128-0.58,0.876-1.245c0.453-0.402,2.491-1.185,6.034-1.579c2.558-0.284,5.261-0.284,7.612,0.003
							c1.11,0.135,2.15,0.332,3.091,0.588c4.092,1.113,5.159,3.012,5.427,3.776c0.221,0.63,0.187,1.243-0.092,1.681
							c-0.102,0.155-0.381,0.371-0.788,0.605C284.726,380.695,284.682,380.399,284.577,380.098z"/>
						<g>
							<path style="fill:#FFFFFF;" d="M264.265,378.868c1.508,0.772,3.088,1.326,4.665,1.881c1.573,0.541,3.178,0.95,4.812,1.187
								c1.632,0.251,3.29,0.335,4.946,0.279c1.655-0.073,3.316-0.272,4.949-0.724c-1.505,0.789-3.191,1.245-4.892,1.441
								c-1.705,0.208-3.437,0.161-5.14-0.085c-1.699-0.265-3.371-0.734-4.935-1.43C267.115,380.742,265.583,379.944,264.265,378.868
								z"/>
						</g>
					</g>
					<g>
						<path style="fill:#BC6917;" d="M285.047,383.431c-0.001,0.463-0.171,0.844-0.327,1.232c-0.207,0.363-0.4,0.734-0.763,1.021
							c0-0.463,0.171-0.844,0.327-1.232C284.491,384.089,284.685,383.719,285.047,383.431z"/>
					</g>
					<g>
						<path style="fill:#BC6917;" d="M283.354,384.106c-0.002,0.463-0.171,0.844-0.327,1.232c-0.207,0.364-0.4,0.734-0.763,1.022
							c0-0.464,0.171-0.844,0.327-1.232C282.799,384.764,282.993,384.395,283.354,384.106z"/>
					</g>
					<g>
						<path style="fill:#BC6917;" d="M281.295,384.761c-0.004,0.539-0.181,1.007-0.344,1.48c-0.215,0.452-0.416,0.91-0.792,1.297
							c0.003-0.539,0.181-1.007,0.344-1.48C280.719,385.606,280.92,385.149,281.295,384.761z"/>
					</g>
					<g>
						<path style="fill:#BC6917;" d="M278.78,385.163c-0.002,0.463-0.171,0.844-0.327,1.232c-0.207,0.363-0.4,0.734-0.763,1.022
							c0-0.464,0.171-0.844,0.327-1.232C278.224,385.821,278.418,385.451,278.78,385.163z"/>
					</g>
					<g>
						<path style="fill:#BC6917;" d="M276.593,385.223c-0.008,0.536-0.189,0.999-0.355,1.468c-0.219,0.447-0.423,0.901-0.801,1.281
							c0.007-0.536,0.188-0.999,0.355-1.468C276.011,386.056,276.216,385.603,276.593,385.223z"/>
					</g>
					<g>
						<path style="fill:#BC6917;" d="M274.319,385.049c-0.002,0.463-0.171,0.844-0.327,1.232c-0.207,0.363-0.4,0.734-0.763,1.022
							c0-0.464,0.171-0.844,0.327-1.232C273.764,385.707,273.957,385.337,274.319,385.049z"/>
					</g>
					<g>
						<path style="fill:#BC6917;" d="M272.393,384.714c-0.001,0.463-0.171,0.844-0.327,1.232c-0.207,0.363-0.4,0.734-0.763,1.022
							c0-0.464,0.171-0.844,0.327-1.232C271.837,385.373,272.031,385.003,272.393,384.714z"/>
					</g>
					<g>
						<path style="fill:#BC6917;" d="M270.333,384.273c0.036,0.552-0.113,1.017-0.308,1.461c-0.214,0.435-0.474,0.848-0.923,1.174
							c-0.038-0.553,0.112-1.018,0.308-1.461C269.626,385.012,269.886,384.599,270.333,384.273z"/>
					</g>
					<g>
						<path style="fill:#BC6917;" d="M268.206,383.778c0.036,0.552-0.113,1.017-0.308,1.461c-0.214,0.435-0.474,0.848-0.922,1.174
							c-0.038-0.553,0.112-1.018,0.308-1.461C267.499,384.517,267.76,384.104,268.206,383.778z"/>
					</g>
					<g>
						<path style="fill:#BC6917;" d="M265.759,382.587c-0.002,0.463-0.171,0.844-0.327,1.232c-0.207,0.363-0.4,0.734-0.763,1.021
							c0-0.463,0.171-0.844,0.327-1.232C265.203,383.246,265.397,382.876,265.759,382.587z"/>
					</g>
					<g>
						<path style="fill:#BC6917;" d="M264.073,381.678c-0.002,0.463-0.171,0.844-0.327,1.232c-0.207,0.363-0.4,0.734-0.763,1.021
							c0-0.464,0.171-0.844,0.327-1.232C263.518,382.336,263.711,381.966,264.073,381.678z"/>
					</g>
					<g>
						<path style="fill:#BC6917;" d="M262.321,380.715c-0.002,0.463-0.171,0.844-0.327,1.232c-0.207,0.363-0.4,0.734-0.763,1.022
							c0-0.464,0.171-0.844,0.327-1.232C261.766,381.373,261.959,381.003,262.321,380.715z"/>
					</g>
					<g>
						<path style="fill:#BC6917;" d="M261.311,379.852c-0.001,0.463-0.171,0.844-0.327,1.232c-0.207,0.363-0.4,0.734-0.763,1.021
							c0-0.463,0.171-0.844,0.327-1.232C260.756,380.51,260.949,380.14,261.311,379.852z"/>
					</g>
					<g>
						<path style="fill:#BC6917;" d="M260.636,378.708c-0.002,0.463-0.171,0.844-0.327,1.232c-0.207,0.363-0.4,0.734-0.763,1.022
							c0-0.464,0.171-0.844,0.327-1.232C260.08,379.367,260.274,378.997,260.636,378.708z"/>
					</g>
				</g>
			</g>
			<g>
				<path style="fill:#330C10;" d="M215.491,408.152c-0.487,4.402,7.311,8.876,17.416,9.994c10.106,1.118,18.693-1.545,19.179-5.946
					c0.487-4.402-7.311-8.876-17.416-9.994C224.565,401.087,215.978,403.75,215.491,408.152z"/>
				<g>
					<g>
						<path style="fill:#DA8A2F;" d="M218.983,401.043c1.684-1.493,8.702-2.738,14.921-1.982c1.148,0.139,2.268,0.347,3.322,0.634
							c6.768,1.84,7.807,6.257,6.393,8.471c-0.17,0.267-1.539,3.336-1.806,3.753c-1.188,1.862-7.283,3.992-14.346,2.662
							c-1.338-0.252-2.711-0.629-4.092-1.154c-6.354-2.419-8.162-4.646-7.617-6.602
							C215.939,406.173,218.132,401.798,218.983,401.043z"/>
						<path style="fill:#FFDEAD;" d="M218.983,401.044c1.683-1.494,8.702-2.738,14.921-1.983c1.148,0.139,2.268,0.347,3.322,0.634
							c6.769,1.841,7.807,6.257,6.393,8.472c-1.188,1.862-7.283,3.992-14.346,2.662c-1.338-0.252-2.711-0.628-4.092-1.154
							C216.51,406.372,216.296,403.428,218.983,401.044z"/>
						<path style="fill:#DA8A2F;" d="M241.247,406.763c-0.269-0.764-1.335-2.662-5.427-3.776c-0.941-0.255-1.981-0.453-3.091-0.588
							c-2.351-0.286-5.054-0.287-7.612-0.003c-3.251,0.361-5.219,1.047-5.874,1.469c-0.01-0.03-0.016-0.052-0.017-0.059
							c-0.024-0.14,0.128-0.58,0.876-1.245c0.453-0.402,2.491-1.185,6.035-1.579c2.558-0.284,5.261-0.284,7.612,0.003
							c1.11,0.135,2.15,0.333,3.091,0.588c4.092,1.114,5.159,3.012,5.427,3.776c0.221,0.63,0.187,1.243-0.092,1.681
							c-0.102,0.156-0.381,0.371-0.788,0.605C241.397,407.36,241.353,407.064,241.247,406.763z"/>
						<g>
							<path style="fill:#FFFFFF;" d="M220.935,405.533c1.508,0.772,3.087,1.326,4.665,1.881c1.572,0.541,3.178,0.95,4.812,1.187
								c1.632,0.251,3.29,0.336,4.946,0.279c1.655-0.073,3.316-0.272,4.949-0.724c-1.505,0.789-3.19,1.245-4.892,1.441
								c-1.705,0.208-3.437,0.161-5.14-0.085c-1.699-0.265-3.371-0.734-4.935-1.43C223.786,407.407,222.254,406.609,220.935,405.533
								z"/>
						</g>
					</g>
					<g>
						<path style="fill:#BC6917;" d="M241.717,410.096c-0.001,0.463-0.171,0.844-0.327,1.232c-0.207,0.363-0.4,0.734-0.763,1.022
							c0-0.464,0.171-0.844,0.327-1.232C241.162,410.754,241.355,410.384,241.717,410.096z"/>
					</g>
					<g>
						<path style="fill:#BC6917;" d="M240.025,410.771c-0.002,0.463-0.171,0.844-0.327,1.232c-0.207,0.363-0.4,0.734-0.763,1.022
							c0-0.464,0.171-0.844,0.327-1.232C239.47,411.43,239.663,411.06,240.025,410.771z"/>
					</g>
					<g>
						<path style="fill:#BC6917;" d="M237.965,411.427c-0.004,0.539-0.181,1.006-0.344,1.48c-0.215,0.452-0.416,0.911-0.792,1.297
							c0.003-0.539,0.181-1.007,0.344-1.48C237.389,412.272,237.591,411.814,237.965,411.427z"/>
					</g>
					<g>
						<path style="fill:#BC6917;" d="M235.451,411.828c-0.001,0.463-0.171,0.844-0.327,1.232c-0.207,0.363-0.4,0.734-0.763,1.021
							c0-0.463,0.171-0.844,0.327-1.232C234.895,412.486,235.089,412.116,235.451,411.828z"/>
					</g>
					<g>
						<path style="fill:#BC6917;" d="M233.264,411.888c-0.008,0.536-0.189,0.999-0.356,1.468c-0.219,0.447-0.423,0.901-0.801,1.28
							c0.007-0.536,0.188-0.999,0.355-1.468C232.681,412.721,232.887,412.268,233.264,411.888z"/>
					</g>
					<g>
						<path style="fill:#BC6917;" d="M230.99,411.714c-0.002,0.463-0.171,0.844-0.327,1.232c-0.207,0.363-0.4,0.734-0.763,1.022
							c0-0.464,0.171-0.844,0.327-1.232C230.434,412.372,230.628,412.002,230.99,411.714z"/>
					</g>
					<g>
						<path style="fill:#BC6917;" d="M229.064,411.379c-0.001,0.463-0.171,0.844-0.327,1.232c-0.207,0.363-0.4,0.734-0.763,1.021
							c0-0.464,0.171-0.844,0.327-1.232C228.508,412.038,228.702,411.668,229.064,411.379z"/>
					</g>
					<g>
						<path style="fill:#BC6917;" d="M227.004,410.938c0.036,0.552-0.113,1.017-0.308,1.461c-0.214,0.435-0.474,0.848-0.923,1.174
							c-0.038-0.553,0.112-1.018,0.308-1.461C226.296,411.677,226.557,411.264,227.004,410.938z"/>
					</g>
					<g>
						<path style="fill:#BC6917;" d="M224.877,410.443c0.036,0.552-0.113,1.017-0.308,1.461c-0.214,0.435-0.474,0.848-0.923,1.174
							c-0.038-0.553,0.112-1.018,0.308-1.461C224.17,411.182,224.43,410.769,224.877,410.443z"/>
					</g>
					<g>
						<path style="fill:#BC6917;" d="M222.429,409.252c-0.001,0.463-0.171,0.844-0.327,1.232c-0.207,0.363-0.4,0.734-0.763,1.022
							c0-0.463,0.171-0.844,0.327-1.232C221.874,409.911,222.068,409.541,222.429,409.252z"/>
					</g>
					<g>
						<path style="fill:#BC6917;" d="M220.744,408.343c-0.001,0.463-0.171,0.844-0.327,1.232c-0.207,0.363-0.4,0.734-0.763,1.021
							c0-0.463,0.171-0.844,0.327-1.232C220.189,409.001,220.382,408.631,220.744,408.343z"/>
					</g>
					<g>
						<path style="fill:#BC6917;" d="M218.992,407.38c-0.001,0.463-0.171,0.844-0.327,1.232c-0.207,0.363-0.4,0.734-0.763,1.021
							c0-0.463,0.171-0.844,0.327-1.232C218.436,408.038,218.63,407.668,218.992,407.38z"/>
					</g>
					<g>
						<path style="fill:#BC6917;" d="M217.982,406.517c-0.001,0.463-0.171,0.844-0.327,1.232c-0.207,0.363-0.4,0.734-0.763,1.022
							c0-0.464,0.171-0.844,0.327-1.232C217.427,407.175,217.62,406.805,217.982,406.517z"/>
					</g>
					<g>
						<path style="fill:#BC6917;" d="M217.307,405.373c-0.001,0.463-0.171,0.844-0.327,1.232c-0.207,0.363-0.4,0.734-0.763,1.022
							c0-0.464,0.171-0.844,0.327-1.232C216.751,406.032,216.945,405.662,217.307,405.373z"/>
					</g>
				</g>
			</g>
		</g>
	</g>
</g>
</svg>
