<?xml version="1.0" encoding="utf-8"?>
<!-- Generator: Adobe Illustrator 27.5.0, SVG Export Plug-In . SVG Version: 6.00 Build 0)  -->
<svg version="1.1" xmlns="http://www.w3.org/2000/svg" xmlns:xlink="http://www.w3.org/1999/xlink" x="0px" y="0px"
	 viewBox="0 0 1200 1200" style="enable-background:new 0 0 1200 1200;" xml:space="preserve">
<g id="Layer_2">
	<rect style="fill:#A9CABA;" width="1200" height="1200"/>
</g>
<g id="Layer_1">
	<g>
		<g>
			<g id="XMLID_1_">
				<g>
					<path style="fill:#B04220;" d="M515.933,176.61c62.159,57.481,65.25,159.807,5.432,233.15
						c-16.365,20.062-35.809,35.894-56.811,47.392c5.496,26.49-12.148,54.233-12.148,54.233l-42.713-34.835
						c-35.297,6.253-71.396,1.299-102.609-15.716l-17.618,21.602l-51.434-41.954l13.855-16.986
						c-23.092-33.668-30.379-77.638-23.044-121.138l-27.906-22.761c-6.744-5.501-7.285-16.018-1.206-23.471l22.029-27.01
						c6.08-7.454,16.479-9.023,23.223-3.522l9.009,7.349c5.346-9.177,11.407-18.024,18.231-26.394
						c7.626-9.347,15.917-17.753,24.719-25.266l-9.5-7.749c-6.743-5.5-7.283-16.016-1.205-23.471l22.031-27.01
						c6.081-7.453,16.491-9.039,23.235-3.538l31.133,25.393c47.528-14.685,98.712-8.767,138.97,20.041
						c25.93-17.751,40.692,14.95,40.692,14.95C531.075,170.747,522.242,172.297,515.933,176.61z M458.08,418.43l4.973,12.474
						c2.192-0.859,53.383-21.902,66.787-81.642l-13.102-2.952C504.886,399.212,458.543,418.245,458.08,418.43z M361.602,409.21
						c-6.092,7.468-4.979,18.453,2.494,24.549c7.471,6.095,18.46,4.977,24.552-2.495c6.092-7.469,4.976-18.454-2.496-24.546
						C378.681,400.622,367.698,401.738,361.602,409.21z"/>
					<path style="fill:#F5F5F5;" d="M529.839,349.263l-13.102-2.952c-11.851,52.901-58.194,71.934-58.657,72.119l4.973,12.474
						C465.245,430.045,516.435,409.003,529.839,349.263z"/>
					<path style="fill:#F5F5F5;" d="M388.648,431.263c6.092-7.469,4.976-18.454-2.496-24.546c-7.471-6.095-18.454-4.979-24.55,2.493
						c-6.092,7.468-4.979,18.453,2.494,24.549C371.566,439.854,382.556,438.735,388.648,431.263z"/>
				</g>
			</g>
		</g>
		<path style="fill:#553625;" d="M388.255,422.501c0.29,6.29-4.575,11.626-10.866,11.916c-6.291,0.291-11.625-4.575-11.916-10.865
			c-0.29-6.29,4.574-11.626,10.866-11.916C382.629,411.345,387.965,416.21,388.255,422.501z"/>
	</g>
	<g>
		<path style="fill:#FFDDBF;" d="M341.199,1084.184c0,0,93.881-490.233,387.253-505.639
			c293.37-15.407,112.381,505.639,112.381,505.639H341.199z"/>
		<polygon style="fill:#F2F2F2;" points="321.974,1200 358.66,927.059 855.997,1060.717 846.083,1200 		"/>
		<path style="fill:#553625;" d="M429.706,1026.697l22.714-24.151c0,0,62.428,14.552,63.358,16.408
			c0.93,1.857,11.93,34.717,11.93,34.717l-39.933,35.613L502.468,1200H396.201l41.672-128.066L429.706,1026.697z"/>
		<path style="fill:#553625;" d="M585.484,422.197c0,0-99.817,200.922,240.431,354.594l-3.035,96.967
			c0,0,54.593-38.433,44.546,22.888c-10.044,61.321-44,14.755-44,14.755s-10.797,60.343,25.528,147.423
			c0,0,296.125-338.372,117.381-331.393c0,0,57.892-99.675-73.012-179.566C760.715,466.932,663.946,578.366,585.484,422.197z"/>
		<path style="fill:#553625;" d="M563.25,743.383c-9.52,10.951-18.974,13.011-24.357,8.332c-5.383-4.68-4.659-14.328,4.862-25.283
			c9.522-10.951,18.974-13.012,24.358-8.331C573.496,722.782,572.771,732.428,563.25,743.383z"/>
		<path style="fill:#553625;" d="M662.15,816.232c-10.307,10.214-19.888,11.565-24.91,6.498c-5.021-5.067-3.581-14.634,6.727-24.85
			c10.31-10.213,19.888-11.566,24.91-6.499C673.898,796.447,672.46,806.016,662.15,816.232z"/>
		<g>
			<path style="fill:none;" d="M234.665,387.212c0.297-0.031,0.68-0.109,1.12-0.202
				C235.351,387.095,234.959,387.166,234.665,387.212z"/>
			<path style="fill:#FFDDBF;" d="M219.406,414.609c5.006-15.637,29.931,1.323,29.197-16.653
				c-0.524-12.836-7.773-11.987-11.879-11.145c4.614-1.031,13.346-3.94,13.346-11.233c0.001-10.911-7.538-12.6-12.426-12.551
				c5.444-0.788,11.492-7.267,11.693-12.396c0.477-12.175-8.052-12.541-14.072-11.315c5.727-2.314,12.858-7.088,6.734-15.465
				c-13.499-18.465-35.066,10.787-35.066,10.787S-37.334,690.513,259.26,951.888l34.31-44.562
				C214.283,835.909,112.34,683.572,219.406,414.609z M235.785,387.01c-0.439,0.093-0.822,0.171-1.12,0.202
				C234.959,387.166,235.351,387.095,235.785,387.01z"/>
			<path style="fill:#F2F2F2;" d="M366.56,958.228c0,0-33.716-15.527-72.99-50.902l-34.31,44.562
				c30.922,27.25,67.715,53.478,111.286,78.163L366.56,958.228z"/>
		</g>
		<g>
			<path style="fill:#FFDDBF;" d="M997.752,457.774c0,0-19.008-26.027-34.513-8.361c-7.337,8.361,7.723,14.308,7.723,14.308
				s-12.491-3.669-14.476,9.41c-1.34,8.834,7.324,9.311,11.156,9.666c-2.991,1.458-11.373,0.733-11.793,11.005
				c-0.331,8.071,10.329,10.329,13.994,10.865c-3.417-0.305-13.602-0.207-15.041,11.513c-2.464,20.08,21.384-0.603,33.412,28.901
				c114.535,264.91,4.978,412.651-73.84,478.742l42.432,42.221C1244.052,824.241,997.752,457.774,997.752,457.774z"/>
			<path style="fill:#F2F2F2;" d="M849.863,1066.688l-3.984,71.823c43.673-22.342,80.316-46.699,110.927-72.466l-42.432-42.221
				C879.028,1053.461,849.863,1066.688,849.863,1066.688z"/>
		</g>
		<path style="fill:#553625;" d="M464.862,862.737c0,0,120.821-105.58,120.032,77.867
			C584.894,940.604,536.862,876.819,464.862,862.737z"/>
	</g>
</g>
</svg>
